<svg width="133" height="26" viewBox="0 0 133 26" fill="none" xmlns="http://www.w3.org/2000/svg">
<path d="M14.1705 8.40399C13.8367 7.46376 12.6832 6.45912 10.4437 6.45912C8.30894 6.45912 6.87481 7.86482 6.87481 9.95666V17.0337C6.87481 19.0702 8.20908 20.2864 10.4437 20.2864C12.727 20.2864 13.9356 19.2242 14.04 17.1276H11.183C10.2913 17.1276 9.85743 16.6943 9.85743 15.802V13.0559C9.85743 12.1637 10.2913 11.7304 11.183 11.7304H18.8939C19.7855 11.7304 20.2194 12.1637 20.2194 13.0559V18.1607C20.0278 21.2385 17.2665 25.7893 10.4437 25.7893C5.73543 25.7893 0.667969 23.3029 0.667969 17.8445V9.18266C0.667969 3.14712 6.51402 0.956055 10.4437 0.956055C15.2489 0.956055 20.2194 3.78317 20.2194 8.51335C20.2194 9.61013 19.792 9.80333 18.8939 9.80333H15.4783C14.4604 9.80333 14.3306 9.14473 14.2445 8.70897L14.2397 8.68553C14.221 8.58889 14.202 8.49257 14.1705 8.40399Z" fill="#757575"/>
<path d="M47.2534 9.60481C47.2534 13.4488 44.5526 15.9032 42.5255 16.7579L47.2708 23.6566C47.5095 24.0275 47.5424 24.4586 47.3623 24.7877C47.1983 25.0879 46.8807 25.2603 46.4916 25.2603H42.3373C41.3168 25.2603 40.8262 24.8234 40.3234 24.0691L36.5209 18.4003C36.1444 17.8997 36.0822 17.41 36.0822 16.4358V13.6194C36.0822 12.7271 36.5158 12.2938 37.4078 12.2938H38.1116C39.5741 12.2938 41.1525 11.3196 41.1525 9.74615C41.1525 8.16263 39.9455 7.05707 38.2173 7.05707H33.8389V23.9347C33.8389 24.827 33.4053 25.2603 32.5133 25.2603H29.0278C28.1474 25.2603 27.7374 24.8388 27.7374 23.9347V2.84504C27.7374 2.27623 27.871 1.51954 29.0278 1.51954H37.9003C41.9643 1.51954 43.6768 2.41596 45.1225 3.86152C46.4758 5.17824 47.2534 7.27282 47.2534 9.60481Z" fill="#757575"/>
<path d="M104.837 1.48395H101.456C100.565 1.48395 100.131 1.91722 100.131 2.80952V13.9583L93.2261 2.81959L93.1292 2.66867C92.7207 2.03254 92.368 1.48395 91.3864 1.48395H88.0769C87.1849 1.48395 86.7513 1.91722 86.7513 2.80952V23.9348C86.7513 24.8271 87.1849 25.2603 88.0769 25.2603H91.5626C92.4543 25.2603 92.8879 24.8271 92.8879 23.9348V12.7539L99.7928 23.9247L99.8888 24.074C100.298 24.7106 100.65 25.2603 101.632 25.2603H104.837C105.729 25.2603 106.162 24.8271 106.162 23.9348V2.80952C106.162 1.91722 105.729 1.48395 104.837 1.48395Z" fill="#757575"/>
<path d="M115.006 1.48395H131.343C132.235 1.48395 132.668 1.91722 132.668 2.80952V5.73166C132.668 6.62389 132.235 7.05715 131.343 7.05715H126.26V23.9348C126.26 24.8271 125.827 25.2603 124.935 25.2603H121.449C120.557 25.2603 120.124 24.8271 120.124 23.9348V7.05715H115.006C114.114 7.05715 113.68 6.62389 113.68 5.73166V2.80952C113.68 1.91722 114.114 1.48395 115.006 1.48395Z" fill="#757575"/>
<path d="M67.55 17.794C67.2755 17.5326 66.8294 17.533 66.5697 17.7818L64.0136 19.7201C63.878 19.8492 63.8036 20.0221 63.8036 20.2058C63.8036 20.2924 63.82 20.3766 63.8519 20.4551C63.8876 20.5431 63.9427 20.6241 64.0155 20.6933L64.6008 21.2331C64.6318 21.262 64.6727 21.2777 64.7142 21.2777H69.4051C69.4489 21.2777 69.4908 21.2607 69.5224 21.2297L70.0922 20.671C70.2275 20.5419 70.3023 20.3694 70.3023 20.1856C70.3023 20.0016 70.2275 19.829 70.0771 19.6872L67.55 17.794Z" fill="#757575"/>
<path d="M70.7388 4.76921L79.111 24.2116C79.2814 24.5615 79.2746 24.9065 79.0874 25.1474C78.9634 25.3068 78.7015 25.4968 78.1603 25.4968H74.7725C73.7913 25.4968 73.3664 25.2138 73.0243 24.3327L67.069 10.2839L67.0532 10.3208L67.0375 10.2839L61.0819 24.3327C60.7398 25.2138 60.3149 25.4968 59.3337 25.4968H55.9458C55.4046 25.4968 55.1431 25.3068 55.019 25.1474C54.8316 24.9065 54.8251 24.5615 54.9952 24.2116L63.3677 4.76921C63.7765 3.9518 64.2153 3.28724 64.9175 2.68147C65.7235 1.98631 66.3723 1.68431 67.0523 1.68431C67.8531 1.68431 68.3827 1.98631 69.1887 2.68147C69.8912 3.28724 70.33 3.9518 70.7388 4.76921Z" fill="#757575"/>
</svg>
