<svg width="90" height="50" viewBox="0 0 90 50" fill="none" xmlns="http://www.w3.org/2000/svg">
<path d="M49.8977 28.2704L29.2129 0.817749V10.992L56.8823 49.1822V21.0321H49.8977V28.2704Z" fill="#757575"/>
<path d="M82.0829 12.8489H41.7701L47.1907 20.0431H65.218L58.9918 26.456L63.9308 31.5433L63.9334 31.5404L73.1161 40.9985L82.9921 40.9968L68.8724 26.4533L82.0829 12.8489Z" fill="#757575"/>
<path d="M7.16725 33.8048V20.0431H20.7768L27.7613 12.8489H0.182617V40.999H27.7613L20.7768 33.8048H7.16725Z" fill="#757575"/>
<path d="M29.7791 40.999H36.7637V30.0622L29.7791 37.2564V40.999Z" fill="#757575"/>
<path d="M20.484 25.839C20.484 29.8463 23.638 33.095 27.5286 33.095C31.4192 33.095 34.5732 29.8463 34.5732 25.839C34.5732 21.8316 31.4192 18.5829 27.5286 18.5829C23.638 18.5829 20.484 21.8316 20.484 25.839Z" fill="#757575"/>
<path d="M82.0829 18.583C78.1922 18.583 75.0382 21.8316 75.0382 25.8391C75.0382 29.8463 78.1922 33.0949 82.0829 33.0949C85.9735 33.0949 89.1275 29.8463 89.1275 25.8391C89.1275 21.8316 85.9735 18.583 82.0829 18.583Z" fill="#757575"/>
</svg>
