<svg width="121" height="37" viewBox="0 0 121 37" fill="none" xmlns="http://www.w3.org/2000/svg">
<path d="M102.861 20.3111C108.381 20.3111 113.902 20.3111 119.422 20.3111C119.422 25.8313 119.422 31.3515 119.422 36.8717C113.902 36.8717 108.381 36.8717 102.861 36.8717C102.861 31.3515 102.861 25.8313 102.861 20.3111ZM116.405 26.4732C115.763 27.757 115.185 28.9765 114.576 30.1961C114.351 30.0998 114.158 30.0035 113.934 29.9073C113.805 30.164 113.677 30.3887 113.549 30.6454C114.158 30.9343 114.736 31.2231 115.314 31.5441C116.341 29.4579 117.368 27.4039 118.395 25.3499C116.116 25.3499 113.934 25.3499 111.719 25.3499C111.719 25.735 111.719 26.0881 111.719 26.4732C113.292 26.4732 114.8 26.4732 116.405 26.4732ZM106.039 29.9073C105.878 30.164 105.718 30.3566 105.557 30.6133C106.071 30.9343 106.584 31.2552 107.098 31.6083C107.804 30.6133 108.285 29.5863 108.253 28.3346C108.991 28.3346 109.729 28.3346 110.468 28.3346C110.468 27.9174 110.468 27.5644 110.468 27.1793C108.381 27.1793 106.327 27.1793 104.273 27.1793C104.273 27.5644 104.273 27.9174 104.273 28.3346C105.204 28.3346 106.071 28.3346 106.969 28.3346C107.066 28.9765 106.873 29.7468 106.52 30.1961C106.327 30.0998 106.199 30.0356 106.039 29.9073ZM104.787 26.4732C106.488 26.4732 108.189 26.4732 109.89 26.4732C109.89 26.0881 109.89 25.735 109.89 25.3499C108.189 25.3499 106.488 25.3499 104.787 25.3499C104.787 25.7029 104.787 26.0881 104.787 26.4732ZM110.5 24.5796C110.692 24.8043 110.885 25.029 111.077 25.2536C111.238 25.1252 111.366 24.9969 111.527 24.8685C111.334 24.6117 111.142 24.4192 110.949 24.1945C110.789 24.3229 110.66 24.4513 110.5 24.5796ZM110.756 25.0931C110.564 24.8685 110.371 24.6438 110.179 24.4192C110.018 24.5475 109.89 24.6759 109.762 24.8043C109.954 25.029 110.147 25.2536 110.339 25.4783C110.468 25.3499 110.596 25.2536 110.756 25.0931Z" fill="#757575"/>
<path d="M120.128 9.30282C120.064 9.72005 120.032 10.1052 119.967 10.5224C119.55 12.9616 118.427 14.9514 116.405 16.4277C115.153 17.3264 113.709 17.7436 112.233 18.0003C107.258 18.7706 103.022 14.823 102.476 10.6187C102.155 8.08325 102.572 5.67619 104.113 3.55797C106.424 0.444842 110.853 -0.806829 114.447 0.637407C117.689 1.95327 119.454 4.42452 119.967 7.85859C120.032 8.27581 120.064 8.66094 120.128 9.07817C120.128 9.14235 120.128 9.23864 120.128 9.30282ZM105.493 9.01398C105.429 11.068 106.199 12.6727 107.707 13.9244C109.986 15.8179 113.741 15.4649 115.571 13.1541C117.079 11.2285 117.336 9.07817 116.598 6.79948C116.277 5.83666 115.731 5.0343 114.993 4.36033C113.773 3.30122 112.329 2.8519 110.724 2.98028C109.216 3.10866 107.9 3.71844 106.937 4.93802C105.91 6.1576 105.429 7.53765 105.493 9.01398Z" fill="#757575"/>
<path d="M0.12793 0.380654C0.962377 0.380654 1.76473 0.380654 2.59918 0.380654C2.95221 0.380654 3.14478 0.509031 3.17687 0.894161C3.17687 1.18301 3.20897 1.47185 3.20897 1.72861C3.20897 3.91101 3.20897 6.06132 3.20897 8.24372C3.20897 8.40419 3.24106 8.59675 3.24106 8.8856C3.52991 8.62885 3.78666 8.46838 3.97923 8.27581C5.58393 6.63901 7.18864 4.97012 8.82544 3.30122C9.69199 2.40259 10.5264 1.53604 11.393 0.637407C11.5214 0.50903 11.7781 0.380654 11.9707 0.380654C13.0619 0.34856 14.1852 0.380654 15.2764 0.380654C15.3406 0.380654 15.4047 0.412748 15.5652 0.444842C15.1801 0.862066 14.827 1.27929 14.474 1.66442C12.6767 3.49379 10.8474 5.29106 9.01801 7.12042C8.82544 7.31299 8.63288 7.47346 8.44031 7.63393C8.15147 7.89068 8.11937 8.11534 8.37612 8.40419C9.27476 9.49539 10.1413 10.6508 11.0399 11.742C12.5805 13.6355 14.121 15.5612 15.6615 17.4547C15.6936 17.5189 15.7257 17.5831 15.7899 17.7115C15.6294 17.7436 15.5331 17.7757 15.4047 17.7757C14.4098 17.7757 13.4149 17.7757 12.4521 17.7757C12.099 17.7757 11.8744 17.5831 11.6497 17.3264C9.91664 15.144 8.18356 12.9295 6.45048 10.7471C6.06535 10.2656 6.03325 10.2656 5.58393 10.715C4.94205 11.3568 4.30017 12.0308 3.62619 12.6727C3.36944 12.9295 3.24106 13.2183 3.24106 13.6034C3.24106 14.823 3.24106 16.0105 3.24106 17.2301C3.24106 17.7436 3.17687 17.8078 2.66337 17.8078C2.11777 17.8078 1.57217 17.8078 0.994472 17.8078C0.320495 17.8078 0.320495 17.8078 0.160024 17.198C0.12793 11.5815 0.12793 5.96503 0.12793 0.380654Z" fill="#757575"/>
<path d="M92.9121 17.7436C92.6553 17.7757 92.4949 17.7757 92.3344 17.7757C91.4358 17.7757 90.5692 17.7757 89.6706 17.7757C89.2534 17.7757 88.9645 17.6152 88.7078 17.2943C87.424 15.5612 86.1402 13.8281 84.8885 12.095C84.5676 11.6457 84.1825 11.4531 83.669 11.4852C82.8987 11.5173 82.1285 11.4852 81.3582 11.4852C80.7484 11.4852 80.7163 11.5494 80.7163 12.1592C80.7163 13.8281 80.7163 15.497 80.7163 17.1659C80.7163 17.7436 80.6521 17.8078 80.0744 17.8078C79.593 17.8078 79.1116 17.8078 78.5981 17.8078C77.6995 17.8078 77.6995 17.8078 77.6995 16.877C77.6995 14.8872 77.6995 12.9295 77.6995 10.9396C77.6995 8.50047 77.6995 6.06132 77.6995 3.62216C77.6995 2.98028 77.6674 2.37049 77.6353 1.72861C77.6353 1.56814 77.6353 1.40767 77.6353 1.27929C77.6995 0.412748 77.6995 0.380654 78.566 0.380654C80.8768 0.380654 83.1555 0.380654 85.4663 0.380654C86.8784 0.380654 88.1942 0.701596 89.3817 1.47185C90.6334 2.27421 91.3395 3.3975 91.5641 4.84174C91.7888 6.28598 91.5641 7.66602 90.6976 8.8856C90.0878 9.75214 89.2213 10.2977 88.2584 10.6829C87.7128 10.9075 87.6808 10.9075 88.0659 11.3889C89.5743 13.3467 91.0827 15.3044 92.5911 17.2622C92.6874 17.3905 92.7516 17.5189 92.9121 17.7436ZM80.6842 5.93294C80.6842 6.63901 80.6842 7.34508 80.6842 8.05115C80.6842 8.53257 80.7484 8.59675 81.2298 8.62885C82.5778 8.62885 83.9578 8.62885 85.3058 8.62885C86.1402 8.62885 86.9105 8.43628 87.5845 7.92278C88.6115 7.18461 88.9324 5.51572 88.1943 4.4887C87.6166 3.68635 86.7821 3.36541 85.8514 3.33331C84.2788 3.23703 82.7382 3.26913 81.1656 3.23703C80.8126 3.23703 80.6521 3.3975 80.6521 3.75054C80.6842 4.4887 80.6842 5.19478 80.6842 5.93294Z" fill="#757575"/>
<path d="M36.4906 6.02922C36.4906 4.36033 36.4906 2.65934 36.4906 0.990443C36.4906 0.412748 36.5548 0.380654 37.1004 0.380654C37.6781 0.380654 38.2879 0.380654 38.8656 0.380654C39.4112 0.380654 39.4433 0.412748 39.5074 0.958349C39.5074 1.02254 39.5395 1.11882 39.5395 1.18301C39.5395 3.49379 39.5395 5.77247 39.5074 8.08325C39.5074 9.07817 39.5074 10.0731 39.4753 11.068C39.4433 12.4481 39.1223 13.7318 38.3842 14.9193C37.5818 16.171 36.4906 17.0696 35.0785 17.551C33.3133 18.1287 31.516 18.225 29.6866 17.6473C27.0228 16.8129 25.4823 14.9514 25.033 12.1913C24.9046 11.4531 24.8725 10.6829 24.8404 9.94471C24.8083 6.99205 24.8404 4.03939 24.8404 1.08672C24.8404 0.412748 24.8725 0.380654 25.5144 0.380654C26.1242 0.380654 26.734 0.380654 27.3117 0.380654C27.6326 0.380654 27.8252 0.509031 27.8252 0.862066C27.8252 1.40767 27.8252 1.95327 27.8252 2.49887C27.8252 4.90593 27.7931 7.31299 27.8573 9.75214C27.8894 10.715 28.0177 11.6778 28.2745 12.6085C28.6917 14.0849 30.0076 15.0156 31.5481 15.1119C32.4146 15.1761 33.2812 15.1761 34.0835 14.823C35.7524 14.1169 36.4264 12.7369 36.4585 11.0359C36.5227 9.36701 36.4906 7.69812 36.4906 6.02922Z" fill="#757575"/>
<path d="M51.1255 5.70828C51.1255 4.13567 51.1255 2.56306 51.1255 0.958349C51.1255 0.412748 51.1897 0.34856 51.7353 0.34856C52.3772 0.34856 53.0191 0.34856 53.661 0.34856C53.9819 0.34856 54.1424 0.476937 54.1424 0.797878C54.1424 1.2472 54.1424 1.72861 54.1424 2.17793C54.1424 4.68127 54.1103 7.15252 54.1745 9.65586C54.2066 10.5866 54.3028 11.5494 54.5596 12.4481C55.0089 14.0207 56.2927 14.9514 57.9295 15.0477C58.5393 15.0798 59.1811 15.0798 59.7909 14.9514C61.5561 14.5984 62.7436 13.122 62.7757 11.1322C62.8399 8.14744 62.8399 5.16268 62.872 2.21002C62.872 1.72861 62.872 1.27929 62.872 0.797878C62.872 0.476937 63.0324 0.34856 63.3534 0.34856C63.9953 0.34856 64.6692 0.34856 65.3111 0.34856C65.7925 0.34856 65.8567 0.412748 65.8567 0.926254C65.8567 2.91609 65.8888 4.93802 65.8567 6.92786C65.8246 8.59675 65.8888 10.2977 65.6963 11.9666C65.3111 15.3365 63.0004 17.5189 59.6305 17.9361C57.5764 18.1929 55.6508 17.8399 53.9177 16.6203C52.3772 15.5291 51.5748 13.9565 51.3502 12.1271C51.1897 10.8112 51.2218 9.4312 51.1576 8.08325C51.0934 7.31299 51.1255 6.51064 51.1255 5.70828Z" fill="#757575"/>
</svg>
